<svg data-name="Layer 1" xmlns="http://www.w3.org/2000/svg" width="240" height="60" viewBox="0 0 180 45"><g data-name="#fefefeff"><path d="M15.54 2.43C16.96 1.6 18.38.79 19.82 0a40.41 40.41 0 01-2.08 8.75h4.53A43.48 43.48 0 0120.21.02c1.45.78 2.88 1.6 4.31 2.43.56 1.85 1.18 3.68 1.88 5.48 1.36-.7 2.73-1.41 4.09-2.13 1.35.74 2.69 1.5 4 2.26q-2.89 1.71-6 3.14c1 1 2 2 2.91 3 1.15-2 2.34-3.91 3.6-5.82l3.51 2.07a86.665 86.665 0 00-3.65 5.86q2.52.94 5.09 1.78l-.09 3.95c-2-.49-3.9-1-5.84-1.6 0 1.06-.05 3.17-.06 4.23q2.94-.86 5.91-1.59c0 1.31.06 2.62.08 3.94q-2.61.86-5.19 1.8c1.15 2 2.33 4 3.58 6l-3.53 2q-1.83-2.91-3.48-5.91c-1 1.05-2 2.09-3.07 3.13 2 .94 4 2 6 3l-4.1 2.28c-1.34-.67-2.69-1.32-4-2q-.87 2.57-1.64 5.17c-1.44.83-2.88 1.65-4.33 2.44a42.17 42.17 0 012-8.45h-4.37a37.74 37.74 0 012 8.46c-1.44-.79-2.86-1.6-4.28-2.43-.53-1.74-1.08-3.47-1.67-5.19q-2.05 1-4.08 1.95l-4.11-2.26c2-1.1 4-2.13 6.05-3.05l-3.12-3.17q-1.65 3-3.47 5.93l-3.53-2.05q1.86-2.92 3.56-6c-1.72-.63-3.45-1.23-5.16-1.87v-3.75q3 .68 6 1.52 0-2.07-.06-4.14-2.94.82-5.9 1.55V18.1c1.68-.63 3.37-1.21 5-1.82a63.59 63.59 0 00-3.65-5.81L5 8.35a95.4 95.4 0 013.5 5.82l3-2.95c-2.06-1-4.06-2-6-3.17q2-1.12 4.07-2.23 2 1.06 4.09 2.1c.72-1.8 1.35-3.63 1.91-5.49m-6 16a28.16 28.16 0 010 8.25 36.38 36.38 0 016.24 6.16 35.13 35.13 0 018.45 0 36 36 0 016.15-6.12 27.25 27.25 0 01.06-8.36 40.51 40.51 0 01-6.05-5.95 33.52 33.52 0 01-8.78 0 39.78 39.78 0 01-6.13 5.99z" fill="#0ea478"/><path d="M71.4 2.67a7.84 7.84 0 0110.34 6H78a4.22 4.22 0 00-6.57-2.39c-3.05 2.8-2.77 9.82 2 10.64 2.11.49 3.85-1.1 4.56-3h3.7a7.91 7.91 0 01-10.39 5.84c-7.44-2.18-7.41-14.93.1-17.09zm17.19.13a8.3 8.3 0 019.25 2.41c2.73 3.94 2.53 10.2-1.29 13.38s-10.32 1.85-12.3-2.75-.94-11.4 4.34-13m.7 3.31c-3.79 2.59-2.95 11.34 2.64 10.84 3.48-.09 4.31-4.31 3.88-7.07.01-3.22-3.74-5.69-6.52-3.81zM52.1 2.52h11.74v3h-8v4.26h7.53v3h-7.53v4.26h8v3H52.1zm109 0h11.74v3h-8v4.26h7.53v3h-7.53v4.26h8v3H161.1zM82.08 31.81c-1.73-3 .71-6.92 4-7.33 3.68-1 8 .89 8.83 4.88l-3.45.14c-1.14-3.06-7-2.9-6.19 1 3.42 1.59 9.48 1.51 9.56 6.52-.27 7.44-13.79 7-14-.44h3.44c.64 3.55 7.67 3.61 6.7-.47-2.67-1.96-6.8-1.36-8.89-4.3zm74 10.14c-7.77-2-7.79-15.48.1-17.34 4.35-1.44 9.49 1.41 10 6.1h-3.62a4.33 4.33 0 00-7-2.18c-2.49 3.11-2.27 9.85 2.55 10.45 2.16.43 3.61-1.23 4.39-3 1.22 0 2.44 0 3.66.07a7.92 7.92 0 01-10.08 5.9zM52.1 24.53c3.5.25 7.3-.72 10.57.88 3.72 2.14 3.34 8.08-.39 10 1.21 2.16 2.4 4.32 3.56 6.51l-4 .05c-1.77-2.35-2.16-7.12-6-6.37v6.35H52.1V24.53m3.74 2.88v5.35a14.63 14.63 0 005.46-.68c0-1.27.35-2.67-.41-3.81-1.51-.92-3.35-.8-5.05-.86zm11.77-2.91h11.76v2.94h-8v4.27h7.46v3h-7.46v4.27h8v3H67.63c-.01-5.82.03-11.63-.02-17.48zm29 0h3.76v17.45h-3.73c-.02-5.79.02-11.6-.03-17.45zm6 .01c4 .22 8.55-.84 12 1.83 3.82 3.56 3.82 10.52-.15 13.95-3.4 2.53-7.87 1.5-11.79 1.69V24.51m3.76 3.17v11.08c2.3-.06 5.45.39 6.68-2.12a8.49 8.49 0 00-.34-7.3c-1.56-1.99-4.23-1.61-6.4-1.66zm13.18-3.18h11.76v2.94h-8v4.27h7.46v3h-7.46v4.27h8v3h-11.74c-.01-5.82.03-11.63-.02-17.48zm14 0h3.31c2.46 3.8 5 7.52 7.66 11.22.09-3.75.06-7.5 0-11.24h3.49v17.45H145c-2.47-3.78-5.13-7.43-7.65-11.18.07 3.73 0 7.46 0 11.19h-3.73c0-5.78.04-11.59-.01-17.44zm34.49.02h11.74v3h-8v4.26h7.54v3h-7.53v4.26h8v3H168.1z"/></g><path d="M111.78 7.24a2.21 2.21 0 00-.82-1.58 3.15 3.15 0 00-2-.56 3.51 3.51 0 00-1.42.25 2 2 0 00-.89.68 1.76 1.76 0 00-.3 1 1.5 1.5 0 00.18.8 2 2 0 00.56.6 4.29 4.29 0 00.83.42 6.9 6.9 0 001 .31l1.46.37a9.93 9.93 0 012 .67 5.87 5.87 0 011.54 1 4.41 4.41 0 011 1.44 4.78 4.78 0 01.37 1.91 4.92 4.92 0 01-.76 2.74 4.87 4.87 0 01-2.16 1.79 8.24 8.24 0 01-3.39.63 8.56 8.56 0 01-3.42-.63 5.06 5.06 0 01-2.27-1.9 5.93 5.93 0 01-.86-3.12h3.33a2.75 2.75 0 00.47 1.45 2.54 2.54 0 001.12.86 4 4 0 001.59.29 3.93 3.93 0 001.52-.27 2.38 2.38 0 001-.75 1.83 1.83 0 00.35-1.1 1.46 1.46 0 00-.32-1 2.4 2.4 0 00-.93-.67 8.84 8.84 0 00-1.51-.51l-1.77-.47a7.2 7.2 0 01-3.24-1.66 4 4 0 01-1.19-3 4.74 4.74 0 01.79-2.73 5.37 5.37 0 012.2-1.83 7.48 7.48 0 013.17-.65 7.25 7.25 0 013.16.65 4.94 4.94 0 012.89 4.53zm4.97-1.96V2.35h13.75v2.94h-4.91v14.7h-3.93V5.29zm17.04 14.7h-3.74l5.75-17.63h4.54l5.74 17.64h-3.74l-4.2-13.72H138zm-.34-6.86h8.85v2.94h-8.85zm11.79-7.84V2.35H159v2.94h-4.91v14.7h-3.93V5.29z"/></svg>